<mxfile host="app.diagrams.net" modified="2023-08-23T09:30:46.608Z" agent="Mozilla/5.0 (Windows NT 10.0; Win64; x64) AppleWebKit/537.36 (KHTML, like Gecko) Chrome/115.0.0.0 Safari/537.36 Edg/115.0.1901.203" etag="dFaPzB5cQKaH9R2v_qUc" version="21.6.9" type="device">
  <diagram id="C5RBs43oDa-KdzZeNtuy" name="Page-1">
    <mxGraphModel dx="739" dy="470" grid="1" gridSize="10" guides="1" tooltips="1" connect="1" arrows="1" fold="1" page="1" pageScale="1" pageWidth="827" pageHeight="1169" math="0" shadow="0">
      <root>
        <mxCell id="WIyWlLk6GJQsqaUBKTNV-0" />
        <mxCell id="WIyWlLk6GJQsqaUBKTNV-1" parent="WIyWlLk6GJQsqaUBKTNV-0" />
        <mxCell id="vNby9LmUYI1h-vxjDJAR-0" value="" style="rounded=1;whiteSpace=wrap;html=1;fillColor=#ffe6cc;strokeColor=#d79b00;" parent="WIyWlLk6GJQsqaUBKTNV-1" vertex="1">
          <mxGeometry x="120" y="40" width="520" height="170" as="geometry" />
        </mxCell>
        <mxCell id="WIyWlLk6GJQsqaUBKTNV-3" value="V2X Interface Control" style="rounded=1;whiteSpace=wrap;html=1;fontSize=12;glass=0;strokeWidth=1;shadow=0;" parent="WIyWlLk6GJQsqaUBKTNV-1" vertex="1">
          <mxGeometry x="185" y="70" width="390" height="40" as="geometry" />
        </mxCell>
        <mxCell id="vNby9LmUYI1h-vxjDJAR-1" value="Interface 2" style="rounded=0;whiteSpace=wrap;html=1;" parent="WIyWlLk6GJQsqaUBKTNV-1" vertex="1">
          <mxGeometry x="325" y="150" width="110" height="30" as="geometry" />
        </mxCell>
        <mxCell id="vNby9LmUYI1h-vxjDJAR-2" value="Interface 1" style="rounded=0;whiteSpace=wrap;html=1;" parent="WIyWlLk6GJQsqaUBKTNV-1" vertex="1">
          <mxGeometry x="185" y="150" width="110" height="30" as="geometry" />
        </mxCell>
        <mxCell id="vNby9LmUYI1h-vxjDJAR-3" value="Interface 3" style="rounded=0;whiteSpace=wrap;html=1;" parent="WIyWlLk6GJQsqaUBKTNV-1" vertex="1">
          <mxGeometry x="465" y="150" width="110" height="30" as="geometry" />
        </mxCell>
        <mxCell id="vNby9LmUYI1h-vxjDJAR-4" value="In" style="text;html=1;strokeColor=none;fillColor=none;align=center;verticalAlign=middle;whiteSpace=wrap;rounded=0;" parent="WIyWlLk6GJQsqaUBKTNV-1" vertex="1">
          <mxGeometry x="185" y="180" width="60" height="20" as="geometry" />
        </mxCell>
        <mxCell id="vNby9LmUYI1h-vxjDJAR-5" value="Out" style="text;html=1;strokeColor=none;fillColor=none;align=center;verticalAlign=middle;whiteSpace=wrap;rounded=0;" parent="WIyWlLk6GJQsqaUBKTNV-1" vertex="1">
          <mxGeometry x="235" y="180" width="60" height="20" as="geometry" />
        </mxCell>
        <mxCell id="vNby9LmUYI1h-vxjDJAR-6" value="In" style="text;html=1;strokeColor=none;fillColor=none;align=center;verticalAlign=middle;whiteSpace=wrap;rounded=0;" parent="WIyWlLk6GJQsqaUBKTNV-1" vertex="1">
          <mxGeometry x="465" y="180" width="60" height="20" as="geometry" />
        </mxCell>
        <mxCell id="vNby9LmUYI1h-vxjDJAR-7" value="In" style="text;html=1;strokeColor=none;fillColor=none;align=center;verticalAlign=middle;whiteSpace=wrap;rounded=0;" parent="WIyWlLk6GJQsqaUBKTNV-1" vertex="1">
          <mxGeometry x="325" y="180" width="60" height="20" as="geometry" />
        </mxCell>
        <mxCell id="vNby9LmUYI1h-vxjDJAR-8" value="Out" style="text;html=1;strokeColor=none;fillColor=none;align=center;verticalAlign=middle;whiteSpace=wrap;rounded=0;" parent="WIyWlLk6GJQsqaUBKTNV-1" vertex="1">
          <mxGeometry x="515" y="180" width="60" height="20" as="geometry" />
        </mxCell>
        <mxCell id="vNby9LmUYI1h-vxjDJAR-9" value="Out" style="text;html=1;strokeColor=none;fillColor=none;align=center;verticalAlign=middle;whiteSpace=wrap;rounded=0;" parent="WIyWlLk6GJQsqaUBKTNV-1" vertex="1">
          <mxGeometry x="375" y="180" width="60" height="20" as="geometry" />
        </mxCell>
        <mxCell id="vNby9LmUYI1h-vxjDJAR-14" value="cc&amp;nbsp;" style="text;html=1;strokeColor=none;fillColor=none;align=center;verticalAlign=middle;whiteSpace=wrap;rounded=0;" parent="WIyWlLk6GJQsqaUBKTNV-1" vertex="1">
          <mxGeometry x="470" y="260" width="60" height="30" as="geometry" />
        </mxCell>
        <mxCell id="vNby9LmUYI1h-vxjDJAR-15" value="" style="endArrow=classic;startArrow=classic;html=1;rounded=0;entryX=0.5;entryY=1;entryDx=0;entryDy=0;" parent="WIyWlLk6GJQsqaUBKTNV-1" target="vNby9LmUYI1h-vxjDJAR-20" edge="1">
          <mxGeometry width="50" height="50" relative="1" as="geometry">
            <mxPoint x="380" y="340" as="sourcePoint" />
            <mxPoint x="352.5" y="350" as="targetPoint" />
          </mxGeometry>
        </mxCell>
        <mxCell id="vNby9LmUYI1h-vxjDJAR-17" value="rc" style="text;html=1;strokeColor=none;fillColor=none;align=center;verticalAlign=middle;whiteSpace=wrap;rounded=0;" parent="WIyWlLk6GJQsqaUBKTNV-1" vertex="1">
          <mxGeometry x="470" y="350" width="60" height="30" as="geometry" />
        </mxCell>
        <mxCell id="vNby9LmUYI1h-vxjDJAR-18" value="" style="endArrow=classic;html=1;rounded=0;entryX=0.5;entryY=0;entryDx=0;entryDy=0;exitX=0.5;exitY=1;exitDx=0;exitDy=0;" parent="WIyWlLk6GJQsqaUBKTNV-1" source="vNby9LmUYI1h-vxjDJAR-0" target="vNby9LmUYI1h-vxjDJAR-20" edge="1">
          <mxGeometry width="50" height="50" relative="1" as="geometry">
            <mxPoint x="380" y="220" as="sourcePoint" />
            <mxPoint x="315" y="260" as="targetPoint" />
          </mxGeometry>
        </mxCell>
        <mxCell id="vNby9LmUYI1h-vxjDJAR-20" value="Communication Control" style="rounded=1;whiteSpace=wrap;html=1;" parent="WIyWlLk6GJQsqaUBKTNV-1" vertex="1">
          <mxGeometry x="300" y="250" width="160" height="50" as="geometry" />
        </mxCell>
        <mxCell id="vNby9LmUYI1h-vxjDJAR-21" value="In" style="text;html=1;strokeColor=none;fillColor=none;align=center;verticalAlign=middle;whiteSpace=wrap;rounded=0;" parent="WIyWlLk6GJQsqaUBKTNV-1" vertex="1">
          <mxGeometry x="300" y="300" width="60" height="20" as="geometry" />
        </mxCell>
        <mxCell id="vNby9LmUYI1h-vxjDJAR-22" value="Out" style="text;html=1;strokeColor=none;fillColor=none;align=center;verticalAlign=middle;whiteSpace=wrap;rounded=0;" parent="WIyWlLk6GJQsqaUBKTNV-1" vertex="1">
          <mxGeometry x="400" y="300" width="60" height="20" as="geometry" />
        </mxCell>
        <mxCell id="vNby9LmUYI1h-vxjDJAR-23" value="V2X Routing Middleware" style="rounded=1;whiteSpace=wrap;html=1;" parent="WIyWlLk6GJQsqaUBKTNV-1" vertex="1">
          <mxGeometry x="300" y="340" width="160" height="50" as="geometry" />
        </mxCell>
        <mxCell id="vNby9LmUYI1h-vxjDJAR-32" value="" style="html=1;verticalLabelPosition=bottom;labelBackgroundColor=#ffffff;verticalAlign=top;shadow=0;dashed=0;strokeWidth=2;shape=mxgraph.ios7.misc.loading_circle;" parent="WIyWlLk6GJQsqaUBKTNV-1" vertex="1">
          <mxGeometry x="185" y="180" width="20" height="20" as="geometry" />
        </mxCell>
        <mxCell id="vNby9LmUYI1h-vxjDJAR-35" value="" style="html=1;verticalLabelPosition=bottom;labelBackgroundColor=#ffffff;verticalAlign=top;shadow=0;dashed=0;strokeWidth=2;shape=mxgraph.ios7.misc.loading_circle;" parent="WIyWlLk6GJQsqaUBKTNV-1" vertex="1">
          <mxGeometry x="235" y="180" width="20" height="20" as="geometry" />
        </mxCell>
        <mxCell id="vNby9LmUYI1h-vxjDJAR-39" value="" style="html=1;verticalLabelPosition=bottom;labelBackgroundColor=#ffffff;verticalAlign=top;shadow=0;dashed=0;strokeWidth=2;shape=mxgraph.ios7.misc.loading_circle;" parent="WIyWlLk6GJQsqaUBKTNV-1" vertex="1">
          <mxGeometry x="325" y="180" width="20" height="20" as="geometry" />
        </mxCell>
        <mxCell id="vNby9LmUYI1h-vxjDJAR-40" value="" style="html=1;verticalLabelPosition=bottom;labelBackgroundColor=#ffffff;verticalAlign=top;shadow=0;dashed=0;strokeWidth=2;shape=mxgraph.ios7.misc.loading_circle;" parent="WIyWlLk6GJQsqaUBKTNV-1" vertex="1">
          <mxGeometry x="375" y="180" width="20" height="20" as="geometry" />
        </mxCell>
        <mxCell id="vNby9LmUYI1h-vxjDJAR-41" value="" style="html=1;verticalLabelPosition=bottom;labelBackgroundColor=#ffffff;verticalAlign=top;shadow=0;dashed=0;strokeWidth=2;shape=mxgraph.ios7.misc.loading_circle;" parent="WIyWlLk6GJQsqaUBKTNV-1" vertex="1">
          <mxGeometry x="465" y="180" width="20" height="20" as="geometry" />
        </mxCell>
        <mxCell id="vNby9LmUYI1h-vxjDJAR-42" value="" style="html=1;verticalLabelPosition=bottom;labelBackgroundColor=#ffffff;verticalAlign=top;shadow=0;dashed=0;strokeWidth=2;shape=mxgraph.ios7.misc.loading_circle;" parent="WIyWlLk6GJQsqaUBKTNV-1" vertex="1">
          <mxGeometry x="515" y="180" width="20" height="20" as="geometry" />
        </mxCell>
        <mxCell id="vNby9LmUYI1h-vxjDJAR-43" value="" style="html=1;verticalLabelPosition=bottom;labelBackgroundColor=#ffffff;verticalAlign=top;shadow=0;dashed=0;strokeWidth=2;shape=mxgraph.ios7.misc.loading_circle;" parent="WIyWlLk6GJQsqaUBKTNV-1" vertex="1">
          <mxGeometry x="465" y="265" width="20" height="20" as="geometry" />
        </mxCell>
        <mxCell id="vNby9LmUYI1h-vxjDJAR-45" value="" style="html=1;verticalLabelPosition=bottom;labelBackgroundColor=#ffffff;verticalAlign=top;shadow=0;dashed=0;strokeWidth=2;shape=mxgraph.ios7.misc.loading_circle;" parent="WIyWlLk6GJQsqaUBKTNV-1" vertex="1">
          <mxGeometry x="465" y="355" width="20" height="20" as="geometry" />
        </mxCell>
        <mxCell id="vNby9LmUYI1h-vxjDJAR-47" value="" style="html=1;verticalLabelPosition=bottom;labelBackgroundColor=#ffffff;verticalAlign=top;shadow=0;dashed=0;strokeWidth=2;shape=mxgraph.ios7.misc.loading_circle;" parent="WIyWlLk6GJQsqaUBKTNV-1" vertex="1">
          <mxGeometry x="300" y="300" width="20" height="20" as="geometry" />
        </mxCell>
        <mxCell id="vNby9LmUYI1h-vxjDJAR-48" value="" style="html=1;verticalLabelPosition=bottom;labelBackgroundColor=#ffffff;verticalAlign=top;shadow=0;dashed=0;strokeWidth=2;shape=mxgraph.ios7.misc.loading_circle;" parent="WIyWlLk6GJQsqaUBKTNV-1" vertex="1">
          <mxGeometry x="395" y="300" width="20" height="20" as="geometry" />
        </mxCell>
      </root>
    </mxGraphModel>
  </diagram>
</mxfile>
